# xmcd
#
# Track frame offsets:
#	150
#	12298
#	24740
#	36410
#	46587
#	60355
#	70319
#	82433
#	93986
#	106247
#	117722
#	128198
#	138804
#	150284
#	161264
#	174101
#	185778
#	197172
#	210930
#	220840
#	232172
#	242760
#
# Disc length: 3420 seconds
#
# Revision: 1
# Processed by: cddbd v1.5.2PL0 Copyright (c) Steve Scherf et al.
# Submitted via: audiograbber 1.83.01
#
DISCID=2c0d5a16
DTITLE=The Greatest Musoc Recordings Of All Time - Record 65 and 66
DYEAR=1900
DGENRE=
TTITLE0=Lulu Belle and Scotty - Have I Told You Lately That I Love You
TTITLE1=Bob Atcher and Bonnie Blue Eyes - You Are My Sunshine
TTITLE2=Wilma Lee and Stoney Cooper - You Tried To Ruin My Name
TTITLE3=Elton Britt and Rosalie Allen - Tennessee Yodel Polka
TTITLE4=Salty and Matie - Echoes Over The Smokies
TTITLE5=Margaret Whiting and Jimmie Wakely - Slipping Around
TTITLE6=Hank Snow and Anita Carter - Bluebird Island
TTITLE7=Jean Shepard and Ray Pillow - I'll Take The Dog
TTITLE8=Ernest Tubb and Loretta Lynn - Mr. And Mrs. Used To Be
TTITLE9=Loretta Lynn and Conway Twitty - Louisiana Woman, Mississippi Man
TTITLE10=Jim Ed and Maxine Brown - Looking Back To See
TTITLE11=Charlie Louvin and Melba Montgomery - Something To Brag About
TTITLE12=Bill Anderson and Jan Howard - I Know You're Married
TTITLE13=Jack Greene and Jeanny Seely - Just Someone I Used To Know
TTITLE14=Buck Owens and Rose Maddox - Sweethearts In Heaven
TTITLE15=Roy Drusky and Prisilla Mitchell - Mr. Peters
TTITLE16=Jim Reeves and Dottie West - Love Is No Excuse
TTITLE17=George Jones and Tammy Wynette - Golden Ring
TTITLE18=Porter Wagoner and Dolly Parton - Making Plans
TTITLE19=Jim Ed Brown and Helen Cornelius - Fools
TTITLE20=The Kendalls - Heaven's Just A Sin Away
TTITLE21=Willie Nelson and Tracy Nelson - After The Fire Is Gone
EXTD=
EXTT0=
EXTT1=
EXTT2=
EXTT3=
EXTT4=
EXTT5=
EXTT6=
EXTT7=
EXTT8=
EXTT9=
EXTT10=
EXTT11=
EXTT12=
EXTT13=
EXTT14=
EXTT15=
EXTT16=
EXTT17=
EXTT18=
EXTT19=
EXTT20=
EXTT21=
PLAYORDER=
